<svg width="119" height="119" viewBox="0 0 119 119" fill="none" xmlns="http://www.w3.org/2000/svg">
<path d="M106.9 12.3765C106.561 12.0034 106.149 11.7029 105.69 11.4934C105.231 11.2838 104.734 11.1695 104.23 11.1573C103.725 11.1452 103.224 11.2354 102.755 11.4226C102.287 11.6098 101.861 11.89 101.504 12.2464L98.6285 15.1075C98.2801 15.4562 98.0843 15.9289 98.0843 16.4218C98.0843 16.9148 98.2801 17.3875 98.6285 17.7362L101.264 20.3672C101.437 20.5408 101.642 20.6785 101.868 20.7725C102.095 20.8665 102.337 20.9149 102.582 20.9149C102.827 20.9149 103.069 20.8665 103.296 20.7725C103.522 20.6785 103.727 20.5408 103.9 20.3672L106.703 17.5781C108.121 16.1627 108.253 13.8571 106.9 12.3765ZM92.8156 20.918L50.8588 62.8005C50.6045 63.0538 50.4196 63.3684 50.3219 63.7139L48.3812 69.4942C48.3347 69.651 48.3314 69.8175 48.3717 69.9761C48.4119 70.1347 48.4942 70.2794 48.6099 70.3951C48.7256 70.5107 48.8704 70.5931 49.0289 70.6333C49.1875 70.6736 49.354 70.6703 49.5108 70.6238L55.2865 68.6831C55.632 68.5854 55.9465 68.4005 56.1999 68.1462L98.0823 26.1847C98.4698 25.7931 98.6871 25.2644 98.6871 24.7135C98.6871 24.1626 98.4698 23.6339 98.0823 23.2423L95.7697 20.918C95.3776 20.527 94.8464 20.3074 94.2927 20.3074C93.7389 20.3074 93.2078 20.527 92.8156 20.918Z" fill="black"/>
<path d="M89.7939 45.0108L61.464 73.3965C60.3689 74.494 59.0232 75.3084 57.543 75.7695L51.5233 77.7846C50.0947 78.1881 48.5843 78.2033 47.1478 77.8287C45.7114 77.4541 44.4007 76.7033 43.351 75.6536C42.3013 74.6039 41.5505 73.2933 41.1759 71.8568C40.8014 70.4204 40.8166 68.91 41.22 67.4814L43.2351 61.4616C43.6949 59.9819 44.5077 58.6362 45.6035 57.5407L73.9892 29.2061C74.2494 28.9462 74.4266 28.615 74.4986 28.2543C74.5705 27.8937 74.5339 27.5198 74.3933 27.1799C74.2528 26.8401 74.0146 26.5496 73.7089 26.3451C73.4032 26.1406 73.0438 26.0314 72.676 26.0312H24.1719C20.7199 26.0313 17.4093 27.4025 14.9684 29.8434C12.5275 32.2843 11.1562 35.5949 11.1562 39.0469V94.8281C11.1563 98.2801 12.5275 101.591 14.9684 104.032C17.4093 106.472 20.7199 107.844 24.1719 107.844H79.9531C83.4051 107.844 86.7157 106.472 89.1566 104.032C91.5975 101.591 92.9688 98.2801 92.9688 94.8281V46.324C92.9686 45.9562 92.8594 45.5968 92.6549 45.2911C92.4504 44.9854 92.1599 44.7472 91.8201 44.6067C91.4802 44.4661 91.1063 44.4295 90.7457 44.5014C90.385 44.5734 90.0538 44.7506 89.7939 45.0108Z" fill="black"/>
</svg>
