<svg width="208" height="208" viewBox="0 0 208 208" fill="none" xmlns="http://www.w3.org/2000/svg">
<path d="M26.739 60.8392V43.5993C26.739 39.027 28.5554 34.6419 31.7885 31.4088C35.0216 28.1757 39.4066 26.3594 43.9789 26.3594H61.2189" stroke="white" stroke-width="25.8599" stroke-linecap="round" stroke-linejoin="round"/>
<path d="M147.417 26.3594H164.657C169.23 26.3594 173.615 28.1757 176.848 31.4088C180.081 34.6419 181.897 39.027 181.897 43.5993V60.8392" stroke="white" stroke-width="25.8599" stroke-linecap="round" stroke-linejoin="round"/>
<path d="M181.897 147.047V164.287C181.897 168.859 180.081 173.244 176.848 176.477C173.615 179.71 169.23 181.527 164.657 181.527H147.417" stroke="#FFFDFD" stroke-width="25.8599" stroke-linecap="round" stroke-linejoin="round"/>
<path d="M61.2189 181.527H43.9789C39.4066 181.527 35.0216 179.71 31.7885 176.477C28.5554 173.244 26.739 168.859 26.739 164.287V147.047" stroke="#FFFDFD" stroke-width="25.8599" stroke-linecap="round" stroke-linejoin="round"/>
</svg>
